<svg id="Layer_1" data-name="Layer 1" xmlns="http://www.w3.org/2000/svg" viewBox="0 0 256 256"><defs><style>.cls-1{fill:#010101;}</style></defs><path class="cls-1" d="M39.6,172.93l-4.26,2.46a4.92,4.92,0,1,0,4.92,8.53l4.26-2.47a4.92,4.92,0,1,0-4.92-8.52Z"/><path class="cls-1" d="M80,209.27a4.92,4.92,0,0,0-6.72,1.8l-2.47,4.27a4.92,4.92,0,0,0,1.81,6.72,4.85,4.85,0,0,0,2.45.66,4.91,4.91,0,0,0,4.27-2.46L81.76,216A4.9,4.9,0,0,0,80,209.27Z"/><path class="cls-1" d="M44.93,73.24l-4.27-2.47a4.92,4.92,0,0,0-4.92,8.53L40,81.76a4.82,4.82,0,0,0,2.45.66,4.92,4.92,0,0,0,2.47-9.18Z"/><path class="cls-1" d="M44.31,128a4.93,4.93,0,0,0-4.93-4.93H24.63a4.93,4.93,0,1,0,0,9.85H39.38A4.93,4.93,0,0,0,44.31,128Z"/><path class="cls-1" d="M128,0A128,128,0,1,0,256,128,128.14,128.14,0,0,0,128,0Zm0,246.15A118.15,118.15,0,1,1,246.15,128,118.28,118.28,0,0,1,128,246.15Z"/><path class="cls-1" d="M176,46.73a4.92,4.92,0,0,0,6.72-1.8l2.47-4.27a4.92,4.92,0,0,0-8.53-4.92L174.24,40A4.91,4.91,0,0,0,176,46.73Z"/><path class="cls-1" d="M214,83.73a4.85,4.85,0,0,0,2.45-.66l4.26-2.46a4.92,4.92,0,0,0-4.92-8.53l-4.26,2.47A4.92,4.92,0,0,0,214,83.73Z"/><path class="cls-1" d="M220.26,176.7,216,174.24a4.93,4.93,0,0,0-4.93,8.53l4.27,2.46a4.92,4.92,0,0,0,4.92-8.53Z"/><path class="cls-1" d="M231.37,123.08H216.61a4.92,4.92,0,0,0,0,9.84h14.76a4.92,4.92,0,1,0,0-9.84Z"/><path class="cls-1" d="M128,211.69a4.93,4.93,0,0,0-4.92,4.93v14.76a4.92,4.92,0,1,0,9.84,0V216.62A4.93,4.93,0,0,0,128,211.69Z"/><path class="cls-1" d="M181.45,211.48a4.92,4.92,0,0,0-8.52,4.92l2.46,4.27a4.92,4.92,0,0,0,4.27,2.46,4.76,4.76,0,0,0,2.45-.67,4.91,4.91,0,0,0,1.81-6.72Z"/><path class="cls-1" d="M80.61,35.33a4.93,4.93,0,0,0-8.53,4.93l2.47,4.26a4.92,4.92,0,1,0,8.52-4.93Z"/><path class="cls-1" d="M128.48,19.91a4.93,4.93,0,0,0-4.92,4.93V39.6a4.92,4.92,0,1,0,9.84,0V24.84A4.93,4.93,0,0,0,128.48,19.91Z"/></svg>