<svg id="Layer_1" data-name="Layer 1" xmlns="http://www.w3.org/2000/svg" viewBox="0 0 512 512"><path d="M79.19,345.86l-8.51,4.92a9.84,9.84,0,0,0,4.93,18.37,9.71,9.71,0,0,0,4.91-1.32L89,362.91a9.85,9.85,0,1,0-9.85-17.05Z"/><path d="M159.92,418.54a9.86,9.86,0,0,0-13.45,3.6l-4.92,8.53a9.84,9.84,0,0,0,3.6,13.45,9.85,9.85,0,0,0,13.45-3.6l4.92-8.53A9.83,9.83,0,0,0,159.92,418.54Z"/><path d="M89.86,146.47l-8.53-4.92a9.85,9.85,0,1,0-9.85,17L80,163.52a9.85,9.85,0,0,0,13.45-3.6A9.85,9.85,0,0,0,89.86,146.47Z"/><path d="M88.62,256a9.86,9.86,0,0,0-9.85-9.85H49.25a9.85,9.85,0,0,0,0,19.7H78.77A9.86,9.86,0,0,0,88.62,256Z"/><path d="M256,0C114.84,0,0,114.85,0,256S114.84,512,256,512,512,397.15,512,256,397.16,0,256,0Zm0,492.31c-130.29,0-236.31-106-236.31-236.31S125.71,19.69,256,19.69,492.31,125.71,492.31,256,386.29,492.31,256,492.31Z"/><path d="M352.08,93.46A9.71,9.71,0,0,0,357,94.78a9.84,9.84,0,0,0,8.54-4.92l4.92-8.53a9.85,9.85,0,1,0-17.05-9.85L348.47,80A9.84,9.84,0,0,0,352.08,93.46Z"/><path d="M427.89,167.46a9.75,9.75,0,0,0,4.92-1.32l8.51-4.92a9.84,9.84,0,1,0-9.84-17.05L423,149.09a9.85,9.85,0,0,0,4.93,18.37Z"/><path d="M440.52,353.4,432,348.47a9.85,9.85,0,0,0-9.85,17.07l8.53,4.92a9.85,9.85,0,0,0,9.85-17.06Z"/><path d="M462.75,246.15H433.22a9.85,9.85,0,0,0,0,19.7h29.53a9.85,9.85,0,1,0,0-19.7Z"/><path d="M260,421.64a9.85,9.85,0,0,0-9.85,9.85V461a9.85,9.85,0,0,0,19.7,0V431.49A9.85,9.85,0,0,0,260,421.64Z"/><path d="M362.91,423a9.85,9.85,0,0,0-17.05,9.85l4.92,8.53a9.84,9.84,0,0,0,8.54,4.92,9.65,9.65,0,0,0,4.91-1.33,9.82,9.82,0,0,0,3.6-13.44Z"/><path d="M161.22,70.67a9.85,9.85,0,0,0-17.05,9.85L149.09,89a9.85,9.85,0,1,0,17-9.86Z"/><path d="M256,41.94a9.85,9.85,0,0,0-9.85,9.84V81.32a9.85,9.85,0,0,0,19.7,0V51.78A9.85,9.85,0,0,0,256,41.94Z"/></svg>