<?xml version="1.0" encoding="utf-8"?>
<!-- Generator: Adobe Illustrator 26.3.0, SVG Export Plug-In . SVG Version: 6.00 Build 0)  -->
<svg version="1.1" id="Layer_1" xmlns="http://www.w3.org/2000/svg" xmlns:xlink="http://www.w3.org/1999/xlink" x="0px" y="0px"
	 viewBox="0 0 256 256" style="enable-background:new 0 0 256 256;" xml:space="preserve">
<style type="text/css">
	.st0{fill:#010101;}
</style>
<path class="st0" d="M136.3,16.3c-2.7-0.2-5.5-0.3-8.3-0.3V0c3.1,0,6.3,0.1,9.4,0.3L136.3,16.3z M168.3,23.5
	c-5.1-2-10.4-3.6-15.8-4.8l3.5-15.6c6.1,1.4,12.1,3.2,18,5.5L168.3,23.5z M190.2,34.9c-2.3-1.5-4.6-3-7-4.3l7.9-13.9
	c5.5,3.1,10.7,6.6,15.7,10.5L197,39.7C194.8,38,192.6,36.4,190.2,34.9L190.2,34.9z M219.6,63.5c-3.2-4.5-6.7-8.8-10.4-12.7l11.6-11
	c4.3,4.6,8.3,9.4,12,14.6L219.6,63.5z M231.5,85.1c-1.1-2.5-2.2-5-3.4-7.5l14.3-7.2c2.8,5.6,5.2,11.4,7.2,17.4l-15.2,5
	C233.5,90.2,232.5,87.7,231.5,85.1L231.5,85.1z M240,125.2c-0.1-5.5-0.7-11-1.6-16.4l15.8-2.7c1.1,6.2,1.7,12.4,1.9,18.7L240,125.2
	L240,125.2z M237.9,149.8c0.5-2.7,1-5.4,1.3-8.2l15.9,2c-0.8,6.2-2,12.4-3.7,18.5l-15.4-4.3C236.7,155.2,237.3,152.5,237.9,149.8
	L237.9,149.8z M222.6,187.9c2.9-4.6,5.5-9.5,7.8-14.5l14.6,6.5c-2.6,5.7-5.5,11.3-8.9,16.6L222.6,187.9z M207.2,207.2
	c2-1.9,3.8-3.9,5.6-6l12.2,10.4c-2,2.4-4.2,4.7-6.4,6.9L207.2,207.2z"/>
<path class="st0" d="M128,16C66.1,16,16,66.1,16,128c0,61.9,50.1,112,112,112c29.7,0,58.2-11.8,79.3-32.8l11.3,11.3
	c-50,50-131,50-181,0.1s-50-131-0.1-181C61.4,13.5,94,0,128,0V16z"/>
<path class="st0" d="M39.2,173.3l-4.3,2.5c-2.4,1.4-3.2,4.4-1.8,6.7c1.4,2.4,4.4,3.2,6.7,1.8l4.3-2.5c2.4-1.4,3.2-4.4,1.8-6.7
	C44.6,172.8,41.6,172,39.2,173.3C39.2,173.3,39.2,173.3,39.2,173.3z"/>
<path class="st0" d="M79.6,209.7c-2.4-1.4-5.4-0.6-6.7,1.8l-2.5,4.3c-1.4,2.3-0.6,5.4,1.8,6.7c0,0,0,0,0,0c0.7,0.4,1.6,0.7,2.4,0.7
	c1.8,0,3.4-0.9,4.3-2.5l2.5-4.3C82.7,214,81.9,211,79.6,209.7C79.6,209.7,79.6,209.7,79.6,209.7z"/>
<path class="st0" d="M44.5,73.6l-4.3-2.5c-2.4-1.3-5.4-0.3-6.7,2.1c-1.2,2.3-0.4,5.1,1.7,6.5l4.3,2.5c0.7,0.4,1.6,0.7,2.5,0.7
	c2.7,0,4.9-2.2,4.9-4.9C47,76.1,46.1,74.5,44.5,73.6z"/>
<path class="st0" d="M43.9,128.4c0-2.7-2.2-4.9-4.9-4.9H24.2c-2.7-0.1-5,2-5.1,4.7c-0.1,2.7,2,5,4.7,5.1c0.1,0,0.3,0,0.4,0H39
	C41.7,133.3,43.9,131.1,43.9,128.4z"/>
<path class="st0" d="M175.6,47.1c0.7,0.4,1.6,0.7,2.5,0.7c1.8,0,3.4-0.9,4.3-2.5l2.5-4.3c1.5-2.3,0.8-5.3-1.5-6.8
	c-2.3-1.5-5.3-0.8-6.8,1.5c-0.1,0.1-0.1,0.2-0.2,0.3l-2.5,4.3C172.5,42.7,173.3,45.8,175.6,47.1C175.6,47.1,175.6,47.1,175.6,47.1z"
	/>
<path class="st0" d="M213.6,84.1c0.9,0,1.7-0.2,2.5-0.7l4.2-2.5c2.4-1.4,3.2-4.4,1.8-6.7c-1.4-2.4-4.4-3.2-6.7-1.8l-4.3,2.5
	c-2.4,1.4-3.2,4.4-1.8,6.7C210.2,83.2,211.8,84.1,213.6,84.1z"/>
<path class="st0" d="M219.9,177.1l-4.3-2.5c-2.4-1.3-5.4-0.3-6.7,2.1c-1.2,2.3-0.4,5.1,1.7,6.5l4.3,2.5c0.7,0.4,1.6,0.7,2.4,0.7
	c2.7,0,4.9-2.2,4.9-4.9C222.3,179.6,221.4,178,219.9,177.1L219.9,177.1z"/>
<path class="st0" d="M231,123.5h-14.8c-2.7,0-4.9,2.2-4.9,4.9c0,2.7,2.2,4.9,4.9,4.9H231c2.7,0,4.9-2.2,4.9-4.9
	C235.9,125.7,233.7,123.5,231,123.5C231,123.5,231,123.5,231,123.5z"/>
<path class="st0" d="M127.6,212.1c-2.7,0-4.9,2.2-4.9,4.9v14.8c0,2.7,2.2,4.9,4.9,4.9c2.7,0,4.9-2.2,4.9-4.9V217
	C132.5,214.3,130.3,212.1,127.6,212.1z"/>
<path class="st0" d="M181.1,211.9c-1.4-2.4-4.4-3.2-6.7-1.8c-2.4,1.4-3.2,4.4-1.8,6.7l0,0l2.5,4.3c1.4,2.4,4.4,3.2,6.7,1.8
	c2.4-1.4,3.2-4.4,1.8-6.7l0,0L181.1,211.9z"/>
<path class="st0" d="M80.2,35.7c-1.4-2.4-4.4-3.2-6.7-1.8s-3.2,4.4-1.8,6.7l2.5,4.3c0.9,1.5,2.5,2.5,4.3,2.5c0.9,0,1.7-0.2,2.4-0.7
	c2.3-1.4,3.2-4.4,1.8-6.7L80.2,35.7z"/>
</svg>
