<?xml version="1.0" encoding="utf-8"?>
<!-- Generator: Adobe Illustrator 26.3.0, SVG Export Plug-In . SVG Version: 6.00 Build 0)  -->
<svg version="1.1" id="Layer_1" xmlns="http://www.w3.org/2000/svg" xmlns:xlink="http://www.w3.org/1999/xlink" x="0px" y="0px"
	 viewBox="0 0 1024 1024" style="enable-background:new 0 0 1024 1024;" xml:space="preserve">
<path d="M438.1,0.5c79,269.3-149.3,300.5-286.2,477.8c-113.5,125-142.7,464,237.8,545.2C155.3,900.8,92.3,532.2,450.8,426.6
	c22.5,114.6,176.4,156.2,237.1,57.3c274.2,186.5,91,490.8-89.9,539.6c259.5-23.9,380.9-213.8,352.9-392.3
	C906.1,346,759.8,410.9,866.5,121C554.2,134.5,724.7,392.9,605,367.2c-34-11.4-55.1-63-28.3-103.3C646.7,153.9,631.9,81.6,438.1,0.5
	z"/>
</svg>
