<?xml version="1.0" encoding="utf-8"?>
<!-- Generator: Adobe Illustrator 26.3.0, SVG Export Plug-In . SVG Version: 6.00 Build 0)  -->
<svg version="1.1" id="Layer_1" xmlns="http://www.w3.org/2000/svg" xmlns:xlink="http://www.w3.org/1999/xlink" x="0px" y="0px"
	 viewBox="0 0 512 512" style="enable-background:new 0 0 512 512;" xml:space="preserve">
<g transform="translate(0,0)">
	<path d="M273.9,148.4c-63.7,34.7-179.8,27-207.4,95.6c5.8,0,11.6,0.1,17.4,0.1c16.8-39.4,94.2-45.9,140.9-61.7
		C183.7,208,138.6,234,98.9,244.2c15.1-0.6,30.4,0.1,45.4,0.3c-0.1,0.1-0.3,0.2-0.4,0.3c9.8,1.3,19.6-1.9,29.1-2.7
		c35-26.3,82.9-59.2,112.8-77.3L273.9,148.4z"/>
	<path d="M501.5,13.5c-2.6-3.7-6.8-5.4-10.6-5.9c-3.8-0.5-7.5-0.1-11.5,0.9c-7.8,1.9-16.4,6.1-24.8,12.2c-3.7,2.6-7,5.4-10,8.3
		l9.2,12.8c2.7-2.8,6-5.7,9.8-8.5c7-5.1,14.3-8.4,19.5-9.7c2.3-0.6,4.1-0.7,5.2-0.6c-0.3,1.1-0.9,2.7-2.2,4.7
		c-2.9,4.5-8.4,10.3-15.4,15.4c-3.8,2.7-7.6,4.9-11.2,6.6l9.2,12.8c3.7-1.9,7.4-4.2,11-6.8c8.4-6,15.1-12.8,19.5-19.6
		c2.2-3.4,3.8-6.8,4.5-10.6C504.4,21.7,504.1,17.2,501.5,13.5z"/>
	<polygon points="288.4,142 311.4,174.2 455.6,70.8 432.6,38.6 	"/>
	<path d="M288.9,169.6c-24.3,20.6-65.9,51.9-100,75.6c1,0.7,2.2,1.4,3.3,2c10.9-1.2,21.9-1.9,32.8-2.1c9.3-8.1,19.2-16.4,29.8-25
		c-5.7,8.4-11,16.8-16.2,24.9c6.1,0,12.2,0.1,18.3,0.1c13-20.3,27-40.8,43.9-59.1L288.9,169.6z"/>
</g>
<g>
	<g>
		<path d="M508.1,239H3.9c-2.2,0-4,1.8-4,4c0,105.2,61.2,197.9,156.1,237v27c0,2.2,1.8,4,4,4h184c2.2,0,4-1.8,4-4v-27
			c98.3-40.4,164.1-135.3,164.1-237C512.1,240.8,510.3,239,508.1,239z M340.5,473.6c-1.5,0.6-2.5,2.1-2.5,3.7V501H166v-23.7
			c0-1.6-1-3.1-2.5-3.7C71.4,436.8,14,349.8,8,252h495.9C497,354.8,435.9,435.5,340.5,473.6z"/>
	</g>
</g>
<g>
	<g>
		<path d="M294,471H158c-4.7,0-6.4,2.3-5.9,4.8c0.4,1.9,2.1,3.2,4,3.2c17,0,121.5,0,135.8,0c1.4,0,2.8-0.7,3.5-1.9
			C297.3,474.1,294.3,471,294,471z"/>
	</g>
</g>
<g>
	<g>
		<path d="M348,471h-23.8c-1.9,0-3.7,1.3-4.1,3.1c-0.5,2.6,1.4,4.9,3.9,4.9h23.8c1.9,0,3.7-1.3,4.1-3.1
			C352.4,473.3,350.5,471,348,471z"/>
	</g>
</g>
<g>
	<g>
		<path d="M476.1,316.8c-2.1-0.7-4.4,0.3-5.1,2.4c-10,28.2-25.2,53.8-45.3,76.1c-1.5,1.6-1.3,4.2,0.3,5.6c0.8,0.7,1.7,1,2.7,1
			c1.1,0,2.2-0.4,3-1.3c20.8-23.1,36.5-49.6,46.9-78.8C479.3,319.8,478.2,317.5,476.1,316.8z"/>
	</g>
</g>
<g>
	<g>
		<path d="M487.5,260.2c-2.2-0.2-4.1,1.4-4.3,3.6c-1,11.1-2.8,22.1-5.4,32.8c-0.5,2.1,0.8,4.3,2.9,4.8c0.3,0.1,0.6,0.1,0.9,0.1
			c1.8,0,3.4-1.2,3.9-3.1c2.7-11.1,4.6-22.5,5.6-34C491.3,262.4,489.7,260.5,487.5,260.2z"/>
	</g>
</g>
</svg>
